<svg xmlns="http://www.w3.org/2000/svg" width="312.176" height="219.616" viewBox="0 0 312.176 219.616">
  <defs>
    <style>
      .cls-1 {
        fill: #939ca0;
      }
    </style>
  </defs>
  <g id="Group_44" data-name="Group 44" transform="translate(-1975 -537)">
    <path id="Path_25" data-name="Path 25" class="cls-1" d="M738.832,186.215c0-4.385-.034-8.637.051-12.886.009-.451.652-1,1.126-1.313q6.174-4.117,12.4-8.158,15.825-10.268,31.665-20.514c8.472-5.508,16.886-11.107,25.38-16.581,8.628-5.56,17.244-11.146,26.007-16.488,15.055-9.178,30.212-18.188,45.343-27.24,4.6-2.754,9.274-5.4,13.893-8.128a2.476,2.476,0,0,1,2.757-.082c11.157,5.907,22.35,11.747,33.53,17.611,2.562,1.344,5.109,2.716,7.672,4.059.64.335,1.311.61,2.209,1.024V72.094c1.889,0,3.6,0,5.313,0,9.907.019,19.815.07,29.722.024,1.421-.007,1.782.424,1.778,1.78-.053,16.063-.037,32.127-.1,48.19a3.677,3.677,0,0,0,1.928,3.689c7.622,4.59,15.132,9.366,22.721,14.011,9.47,5.8,18.99,11.511,28.469,17.294,6.468,3.946,12.888,7.973,19.363,11.905a1.515,1.515,0,0,1,.618,2.353c-1.539,2.759-3.079,5.519-4.729,8.211a2.253,2.253,0,0,1-1.672.788c-7.159.058-14.318.045-21.477.049h-1.914c0,3.5.01,6.8,0,10.107q-.071,19.2-.15,38.393-.073,25.988-.111,51.976c-.007,3.159-.038,6.32-.01,9.479.009,1-.292,1.376-1.366,1.364-6.239-.071-12.479-.077-18.719-.088q-18.643-.033-37.285-.049-27.822-.032-55.644-.06-14.221-.012-28.442,0-26.155-.007-52.309-.021c-12.643-.018-25.286-.091-37.929-.124-5.895-.016-11.79,0-17.685.007H769.06c0-1.453,0-2.8,0-4.139q.051-35.632.1-71.263.023-13.749.09-27.5c.009-1.389-.1-2.133-1.918-2.11-8.843.114-17.688.042-26.532.026C740.283,186.384,739.762,186.3,738.832,186.215ZM943.787,102a11.824,11.824,0,0,1-1.429-.507q-5.465-2.833-10.914-5.7c-11.183-5.856-22.384-11.677-33.526-17.61a3.425,3.425,0,0,0-3.877.174c-5.766,3.474-11.586,6.861-17.394,10.266-9.665,5.667-19.42,11.185-28.98,17.022-9.923,6.058-19.7,12.368-29.47,18.666-11.548,7.441-23.033,14.982-34.538,22.49q-20.432,13.336-40.828,26.727a2.785,2.785,0,0,0-1.061,1.9c-.139,2.1.056,4.217-.1,6.312-.124,1.649.455,2.033,2.029,2.021,8.905-.069,17.811-.014,26.717-.055,1.2-.006,1.654.273,1.649,1.571q-.121,33.1-.165,66.2c-.03,10.316-.123,20.631-.182,30.947-.012,2.04,0,4.082,0,6.362h246.324v-111.1c1.313,0,2.254,0,3.2,0q10.512.026,21.023.04c.553,0,1.411.009,1.609-.309,1.349-2.158,2.56-4.4,3.878-6.731-5.308-3.239-10.378-6.333-15.448-9.426q-17.327-10.568-34.651-21.141c-7.227-4.426-14.414-8.918-21.638-13.349a2.2,2.2,0,0,1-1.155-2.162c.022-16.017-.022-32.034.007-48.051,0-1.4-.409-1.765-1.794-1.755-7.954.059-15.908.016-23.862.009-1.772,0-3.543,0-5.417,0Z" transform="translate(1236.175 464.907)"/>
    <path id="Path_25-2" data-name="Path 25" class="cls-1" d="M738.832,186.215c0-4.385-.034-8.637.051-12.886.009-.451.652-1,1.126-1.313q6.174-4.117,12.4-8.158,15.825-10.268,31.665-20.514c8.472-5.508,16.886-11.107,25.38-16.581,8.628-5.56,17.244-11.146,26.007-16.488,15.055-9.178,30.212-18.188,45.343-27.24,4.6-2.754,9.274-5.4,13.893-8.128a2.476,2.476,0,0,1,2.757-.082c11.157,5.907,22.35,11.747,33.53,17.611,2.562,1.344,5.109,2.716,7.672,4.059.64.335,1.311.61,2.209,1.024V72.094c1.889,0,3.6,0,5.313,0,9.907.019,19.815.07,29.722.024,1.421-.007,1.782.424,1.778,1.78-.053,16.063-.037,32.127-.1,48.19a3.677,3.677,0,0,0,1.928,3.689c7.622,4.59,15.132,9.366,22.721,14.011,9.47,5.8,18.99,11.511,28.469,17.294,6.468,3.946,12.888,7.973,19.363,11.905a1.515,1.515,0,0,1,.618,2.353c-1.539,2.759-3.079,5.519-4.729,8.211a2.253,2.253,0,0,1-1.672.788c-7.159.058-14.318.045-21.477.049h-1.914c0,3.5.01,6.8,0,10.107q-.071,19.2-.15,38.393-.073,25.988-.111,51.976c-.007,3.159-.038,6.32-.01,9.479.009,1-.292,1.376-1.366,1.364-6.239-.071-12.479-.077-18.719-.088q-18.643-.033-37.285-.049-27.822-.032-55.644-.06-14.221-.012-28.442,0-26.155-.007-52.309-.021c-12.643-.018-25.286-.091-37.929-.124-5.895-.016-11.79,0-17.685.007H769.06c0-1.453,0-2.8,0-4.139q.051-35.632.1-71.263.023-13.749.09-27.5c.009-1.389-.1-2.133-1.918-2.11-8.843.114-17.688.042-26.532.026C740.283,186.384,739.762,186.3,738.832,186.215ZM943.787,102a11.824,11.824,0,0,1-1.429-.507q-5.465-2.833-10.914-5.7c-11.183-5.856-22.384-11.677-33.526-17.61a3.425,3.425,0,0,0-3.877.174c-5.766,3.474-11.586,6.861-17.394,10.266-9.665,5.667-19.42,11.185-28.98,17.022-9.923,6.058-19.7,12.368-29.47,18.666-11.548,7.441-23.033,14.982-34.538,22.49q-20.432,13.336-40.828,26.727a2.785,2.785,0,0,0-1.061,1.9c-.139,2.1.056,4.217-.1,6.312-.124,1.649.455,2.033,2.029,2.021,8.905-.069,17.811-.014,26.717-.055,1.2-.006,1.654.273,1.649,1.571q-.121,33.1-.165,66.2c-.03,10.316-.123,20.631-.182,30.947-.012,2.04,0,4.082,0,6.362h246.324v-111.1c1.313,0,2.254,0,3.2,0q10.512.026,21.023.04c.553,0,1.411.009,1.609-.309,1.349-2.158,2.56-4.4,3.878-6.731-5.308-3.239-10.378-6.333-15.448-9.426q-17.327-10.568-34.651-21.141c-7.227-4.426-14.414-8.918-21.638-13.349a2.2,2.2,0,0,1-1.155-2.162c.022-16.017-.022-32.034.007-48.051,0-1.4-.409-1.765-1.794-1.755-7.954.059-15.908.016-23.862.009-1.772,0-3.543,0-5.417,0Z" transform="translate(1236.175 464.907)"/>
  </g>
</svg>
